<svg xmlns="http://www.w3.org/2000/svg" viewBox="0 0 680 400" font-family="Inter,sans-serif">
  <rect width="680" height="400" fill="#0a1628" rx="12"/>
  <text x="340" y="28" fill="#e8edf4" font-size="16" font-weight="600" text-anchor="middle">Projection 2D des embeddings (t-SNE) — champs sémantiques</text>

  <!-- Cluster: monarchie -->
  <ellipse cx="180" cy="145" rx="110" ry="62" fill="rgba(30,95,168,0.15)" stroke="#3d8ef0" stroke-width="1.5" stroke-dasharray="4,3"/>
  <text x="180" y="220" fill="#3d8ef0" font-size="11" text-anchor="middle">monarchie et genres</text>
  <circle cx="125" cy="130" r="5" fill="#3d8ef0"/>
  <text x="92" y="125" fill="#e8edf4" font-size="12">roi</text>
  <circle cx="205" cy="130" r="5" fill="#3d8ef0"/>
  <text x="208" y="125" fill="#e8edf4" font-size="12">reine</text>
  <circle cx="145" cy="165" r="5" fill="#3d8ef0"/>
  <text x="115" y="160" fill="#e8edf4" font-size="12">homme</text>
  <circle cx="225" cy="165" r="5" fill="#3d8ef0"/>
  <text x="228" y="160" fill="#e8edf4" font-size="12">femme</text>

  <!-- Cluster: pays -->
  <ellipse cx="460" cy="145" rx="105" ry="62" fill="rgba(0,176,155,0.12)" stroke="#00b09b" stroke-width="1.5" stroke-dasharray="4,3"/>
  <text x="460" y="220" fill="#00b09b" font-size="11" text-anchor="middle">pays</text>
  <circle cx="405" cy="130" r="5" fill="#00b09b"/>
  <text x="370" y="125" fill="#e8edf4" font-size="12">France</text>
  <circle cx="485" cy="130" r="5" fill="#00b09b"/>
  <text x="488" y="125" fill="#e8edf4" font-size="12">Italie</text>
  <circle cx="445" cy="170" r="5" fill="#00b09b"/>
  <text x="412" y="165" fill="#e8edf4" font-size="12">Espagne</text>
  <circle cx="515" cy="170" r="5" fill="#00b09b"/>
  <text x="518" y="165" fill="#e8edf4" font-size="12">Allemagne</text>

  <!-- Cluster: capitales -->
  <ellipse cx="460" cy="300" rx="105" ry="58" fill="rgba(245,197,24,0.1)" stroke="#f5c518" stroke-width="1.5" stroke-dasharray="4,3"/>
  <text x="460" y="368" fill="#f5c518" font-size="11" text-anchor="middle">capitales</text>
  <circle cx="405" cy="285" r="5" fill="#f5c518"/>
  <text x="372" y="280" fill="#e8edf4" font-size="12">Paris</text>
  <circle cx="485" cy="285" r="5" fill="#f5c518"/>
  <text x="488" y="280" fill="#e8edf4" font-size="12">Rome</text>
  <circle cx="445" cy="318" r="5" fill="#f5c518"/>
  <text x="418" y="313" fill="#e8edf4" font-size="12">Madrid</text>
  <circle cx="515" cy="318" r="5" fill="#f5c518"/>
  <text x="518" y="313" fill="#e8edf4" font-size="12">Berlin</text>

  <!-- Concepts lointains -->
  <ellipse cx="130" cy="315" rx="70" ry="42" fill="rgba(224,80,80,0.1)" stroke="#e05050" stroke-width="1.5" stroke-dasharray="4,3"/>
  <text x="130" y="370" fill="#e05050" font-size="11" text-anchor="middle">concepts lointains</text>
  <circle cx="108" cy="305" r="5" fill="#e05050"/>
  <text x="70" y="300" fill="#e8edf4" font-size="12">football</text>
  <circle cx="148" cy="328" r="5" fill="#e05050"/>
  <text x="151" y="323" fill="#e8edf4" font-size="12">musique</text>

  <!-- Analogies -->
  <defs>
    <marker id="arr" markerWidth="8" markerHeight="8" refX="6" refY="3" orient="auto">
      <path d="M0,0 L0,6 L8,3 z" fill="#f5c518"/>
    </marker>
  </defs>

  <line x1="125" y1="130" x2="205" y2="130" stroke="#f5c518" stroke-width="1.2" stroke-dasharray="3,2" marker-end="url(#arr)"/>
  <text x="242" y="133" fill="#f5c518" font-size="11">roi - homme + femme ≈ reine</text>

  <line x1="405" y1="285" x2="485" y2="285" stroke="#f5c518" stroke-width="1.2" stroke-dasharray="3,2" marker-end="url(#arr)"/>
  <text x="242" y="300" fill="#f5c518" font-size="11">Paris - France + Italie ≈ Rome</text>
</svg>
